<svg width="1440" height="250" viewBox="0 0 1440 250" fill="none" xmlns="http://www.w3.org/2000/svg">
    <g clip-path="url(#banner)">
        <rect width="1440" height="250" fill="#121212"/>
        <rect width="1440" height="250" fill="#121212"/>
        <path d="M1291.83 107.342C1264.59 70.39 1257.13 29.6456 1275.19 16.3866C1293.25 3.0684 1329.91 22.2434 1357.14 59.1958C1384.38 96.1482 1391.85 136.893 1373.79 150.152C1355.73 163.411 1319.08 144.236 1291.83 107.342ZM1329.88 49.6191C1327.9 49.1368 1326.24 49.2502 1325.08 50.1638C1320.58 53.4807 1323.95 65.6211 1332.6 77.2885C1341.19 88.9469 1351.79 95.76 1356.28 92.5022C1357.51 91.5976 1358.11 90.0525 1358.24 88.0122C1354.89 81.3269 1350.66 74.4479 1345.69 67.6391C1340.66 60.8805 1335.28 54.7967 1329.88 49.6191ZM1362.23 96.8543C1361.7 95.5624 1361.12 94.2024 1360.53 92.9015C1361.15 97.9635 1360.24 102.005 1357.52 103.956C1350.84 108.881 1335.84 99.9477 1324.08 83.9941C1312.31 68.0405 1308.16 51.0572 1314.9 46.1409C1317.7 44.0803 1321.95 44.4204 1326.87 46.7396C1325.48 45.5 1324.09 44.2603 1322.69 43.1391C1315.36 39.1228 1308.78 38.1875 1304.62 41.2532C1295.82 47.7364 1300.84 69.394 1315.83 89.6518C1330.81 109.91 1350.02 121.114 1358.74 114.681C1362.84 111.606 1363.9 105.042 1362.23 96.8543ZM1366.24 109.152C1366.92 117.069 1365.19 123.289 1360.76 126.556C1349.58 134.798 1325.55 121.106 1307.05 96.0166C1288.56 70.9271 1282.65 43.9259 1293.77 35.6747C1298.2 32.408 1304.65 32.5969 1312.02 35.5885C1300.51 28.7594 1290.07 26.8774 1283.6 31.6518C1270.92 40.9997 1278.05 72.3055 1299.56 101.486C1321.07 130.666 1348.86 146.803 1361.55 137.396C1368.07 132.689 1369.41 122.231 1366.24 109.152Z" stroke="#EFF427" stroke-miterlimit="10"/>
        <path d="M1385.15 167.809C1362.25 184.688 1315.67 160.362 1281.11 113.476C1246.55 66.5896 1237.09 14.8977 1259.99 -1.98115C1282.88 -18.86 1329.46 5.46595 1364.03 52.3523C1398.59 99.2387 1408.05 150.931 1385.15 167.809Z" stroke="#EFF427" stroke-miterlimit="10"/>
        <path d="M1398.65 186.13C1370.8 206.659 1314.16 177.091 1272.14 120.087C1230.12 63.0834 1218.63 0.23035 1246.48 -20.299C1274.33 -40.8284 1330.97 -11.26 1372.99 45.7439C1415.01 102.748 1426.5 165.601 1398.65 186.13Z" stroke="#EFF427" stroke-miterlimit="10"/>
        <path d="M1414.78 203.437C1380.65 228.598 1311.21 192.338 1259.69 122.448C1208.17 52.5573 1194.08 -24.4972 1228.21 -49.6584C1262.34 -74.8196 1331.78 -38.5595 1383.3 31.3307C1434.82 101.221 1448.91 178.275 1414.78 203.437Z" stroke="#EFF427" stroke-miterlimit="10"/>
        <path d="M1434.93 223.766C1393.74 254.129 1309.96 210.386 1247.8 126.065C1185.65 41.7445 1168.65 -51.2245 1209.84 -81.5868C1251.03 -111.949 1334.8 -68.2069 1396.96 16.114C1459.12 100.435 1476.12 193.404 1434.93 223.766Z" stroke="#EFF427" stroke-miterlimit="10"/>
        <path d="M1454.63 246.996C1406.41 282.54 1308.31 231.299 1235.52 132.548C1162.72 33.7963 1142.8 -75.0715 1191.02 -110.615C1239.24 -146.159 1337.34 -94.9187 1410.13 3.83294C1482.93 102.585 1502.85 211.452 1454.63 246.996Z" stroke="#EFF427" stroke-miterlimit="10"/>
        <path d="M1473.02 275.432C1417 316.726 1303.05 257.219 1218.5 142.519C1133.94 27.8192 1110.81 -98.6391 1166.83 -139.933C1222.85 -181.228 1336.81 -121.72 1421.36 -7.02057C1505.91 107.679 1529.04 234.138 1473.02 275.432Z" stroke="#EFF427" stroke-miterlimit="10"/>
        <path d="M1503.08 315.046C1436.41 364.191 1300.79 293.371 1200.17 156.865C1099.54 20.3594 1072.01 -130.14 1138.68 -179.285C1205.35 -228.43 1340.97 -157.61 1441.59 -21.1042C1542.22 115.401 1569.75 265.901 1503.08 315.046Z" stroke="#EFF427" stroke-miterlimit="10"/>
    </g>
    <defs>
        <clipPath id="banner">
            <rect width="1440" height="250" fill="white"/>
        </clipPath>
    </defs>
</svg>
